<mxfile host="app.diagrams.net" modified="2024-01-30T22:14:51.145Z" agent="Mozilla/5.0 (Macintosh; Intel Mac OS X 10.15; rv:122.0) Gecko/20100101 Firefox/122.0" etag="uzPWkeIeqJRDZTk6A6zU" version="23.0.2" type="device">
  <diagram name="Page-1" id="Etuc5V1oYxrJzsiWopby">
    <mxGraphModel dx="1434" dy="728" grid="1" gridSize="10" guides="1" tooltips="1" connect="1" arrows="1" fold="1" page="1" pageScale="1" pageWidth="827" pageHeight="1169" math="0" shadow="0">
      <root>
        <mxCell id="0" />
        <mxCell id="1" parent="0" />
        <mxCell id="OiOY2TozqzmQL39uNomT-2" style="edgeStyle=orthogonalEdgeStyle;rounded=0;orthogonalLoop=1;jettySize=auto;html=1;entryX=0;entryY=0.5;entryDx=0;entryDy=0;" edge="1" parent="1" source="OiOY2TozqzmQL39uNomT-1" target="OiOY2TozqzmQL39uNomT-3">
          <mxGeometry relative="1" as="geometry">
            <mxPoint x="240" y="110" as="targetPoint" />
          </mxGeometry>
        </mxCell>
        <mxCell id="OiOY2TozqzmQL39uNomT-1" value="host" style="rounded=0;whiteSpace=wrap;html=1;" vertex="1" parent="1">
          <mxGeometry x="40" y="80" width="120" height="60" as="geometry" />
        </mxCell>
        <mxCell id="OiOY2TozqzmQL39uNomT-7" style="edgeStyle=orthogonalEdgeStyle;rounded=0;orthogonalLoop=1;jettySize=auto;html=1;" edge="1" parent="1" source="OiOY2TozqzmQL39uNomT-3" target="OiOY2TozqzmQL39uNomT-6">
          <mxGeometry relative="1" as="geometry" />
        </mxCell>
        <mxCell id="OiOY2TozqzmQL39uNomT-3" value="circuit-breaker" style="ellipse;whiteSpace=wrap;html=1;aspect=fixed;" vertex="1" parent="1">
          <mxGeometry x="450" y="65" width="90" height="90" as="geometry" />
        </mxCell>
        <mxCell id="OiOY2TozqzmQL39uNomT-4" value="HTTP forced by custom round-tripper" style="text;html=1;strokeColor=none;fillColor=none;align=center;verticalAlign=middle;whiteSpace=wrap;rounded=0;" vertex="1" parent="1">
          <mxGeometry x="160" y="80" width="310" height="30" as="geometry" />
        </mxCell>
        <mxCell id="OiOY2TozqzmQL39uNomT-5" value="X-Forwarded-Proto = HTTPS" style="text;html=1;strokeColor=none;fillColor=none;align=center;verticalAlign=middle;whiteSpace=wrap;rounded=0;" vertex="1" parent="1">
          <mxGeometry x="160" y="110" width="300" height="30" as="geometry" />
        </mxCell>
        <mxCell id="OiOY2TozqzmQL39uNomT-6" value="target" style="ellipse;shape=cloud;whiteSpace=wrap;html=1;" vertex="1" parent="1">
          <mxGeometry x="680" y="70" width="120" height="80" as="geometry" />
        </mxCell>
        <mxCell id="OiOY2TozqzmQL39uNomT-8" value="HTTPS" style="text;html=1;strokeColor=none;fillColor=none;align=center;verticalAlign=middle;whiteSpace=wrap;rounded=0;" vertex="1" parent="1">
          <mxGeometry x="590" y="80" width="60" height="30" as="geometry" />
        </mxCell>
        <mxCell id="OiOY2TozqzmQL39uNomT-9" value="" style="swimlane;startSize=0;dashed=1;" vertex="1" parent="1">
          <mxGeometry x="30" y="10" width="530" height="200" as="geometry">
            <mxRectangle x="30" y="10" width="50" height="40" as="alternateBounds" />
          </mxGeometry>
        </mxCell>
        <mxCell id="OiOY2TozqzmQL39uNomT-10" value="Kubernetes namespace" style="text;html=1;strokeColor=none;fillColor=none;align=center;verticalAlign=middle;whiteSpace=wrap;rounded=0;" vertex="1" parent="OiOY2TozqzmQL39uNomT-9">
          <mxGeometry x="170" y="180" width="170" height="20" as="geometry" />
        </mxCell>
      </root>
    </mxGraphModel>
  </diagram>
</mxfile>
